<mxfile host="app.diagrams.net" agent="Mozilla/5.0 (Windows NT 10.0; Win64; x64) AppleWebKit/537.36 (KHTML, like Gecko) Chrome/129.0.0.0 Safari/537.36" version="24.7.17">
  <diagram id="9sQmnJu0lc5YC46oBtRC" name="bsa21_2">
    <mxGraphModel dx="1841" dy="1021" grid="1" gridSize="10" guides="1" tooltips="1" connect="1" arrows="1" fold="1" page="1" pageScale="1" pageWidth="1654" pageHeight="1169" math="0" shadow="0">
      <root>
        <mxCell id="0" />
        <mxCell id="1" parent="0" />
        <mxCell id="m1XFAZKYXhFZ4w68f1Fo-2" value="&lt;font style=&quot;font-size: 10px;&quot;&gt;каталог&lt;/font&gt;" style="rounded=1;whiteSpace=wrap;html=1;verticalAlign=top;" parent="1" vertex="1">
          <mxGeometry x="40" y="154.5" width="155" height="310" as="geometry" />
        </mxCell>
        <mxCell id="snO9IdEiVwamC3HxAGcw-32" value="товар 1" style="rounded=1;whiteSpace=wrap;html=1;" parent="1" vertex="1">
          <mxGeometry x="49.5" y="184.5" width="56" height="70" as="geometry" />
        </mxCell>
        <mxCell id="tuDCf-i1AgGtZpwe7FlV-100" value="" style="ellipse;whiteSpace=wrap;html=1;aspect=fixed;strokeWidth=1;strokeColor=#00FA08;" parent="1" vertex="1">
          <mxGeometry x="84.5" y="190" width="20" height="20" as="geometry" />
        </mxCell>
        <mxCell id="snO9IdEiVwamC3HxAGcw-91" value="&lt;span style=&quot;font-size: 10px;&quot;&gt;избранное&amp;nbsp;&lt;/span&gt;" style="rounded=1;whiteSpace=wrap;html=1;verticalAlign=top;" parent="1" vertex="1">
          <mxGeometry x="1050" y="150" width="155" height="310" as="geometry" />
        </mxCell>
        <mxCell id="tuDCf-i1AgGtZpwe7FlV-94" value="" style="rounded=1;whiteSpace=wrap;html=1;strokeColor=#00FA08;" parent="1" vertex="1">
          <mxGeometry x="1058.5" y="436.13" width="30" height="16.75" as="geometry" />
        </mxCell>
        <mxCell id="tuDCf-i1AgGtZpwe7FlV-66" value="&lt;span style=&quot;font-size: 10px;&quot;&gt;карточка товара&lt;/span&gt;" style="rounded=1;whiteSpace=wrap;html=1;verticalAlign=top;" parent="1" vertex="1">
          <mxGeometry x="630" y="154.5" width="155" height="310" as="geometry" />
        </mxCell>
        <mxCell id="tuDCf-i1AgGtZpwe7FlV-82" value="" style="ellipse;whiteSpace=wrap;html=1;aspect=fixed;strokeWidth=1;strokeColor=#00FA08;" parent="1" vertex="1">
          <mxGeometry x="750.5" y="429.5" width="30" height="30" as="geometry" />
        </mxCell>
        <mxCell id="tuDCf-i1AgGtZpwe7FlV-35" value="&lt;span style=&quot;font-size: 10px;&quot;&gt;карточка товара&lt;/span&gt;" style="rounded=1;whiteSpace=wrap;html=1;verticalAlign=top;" parent="1" vertex="1">
          <mxGeometry x="439.5" y="154.5" width="155" height="310" as="geometry" />
        </mxCell>
        <mxCell id="tuDCf-i1AgGtZpwe7FlV-64" value="товар 3" style="rounded=1;whiteSpace=wrap;html=1;" parent="1" vertex="1">
          <mxGeometry x="441.9" y="181.13" width="150.2" height="187.75" as="geometry" />
        </mxCell>
        <mxCell id="tuDCf-i1AgGtZpwe7FlV-81" value="" style="ellipse;whiteSpace=wrap;html=1;aspect=fixed;strokeWidth=1;strokeColor=#00FA08;" parent="1" vertex="1">
          <mxGeometry x="556" y="184.5" width="30" height="30" as="geometry" />
        </mxCell>
        <mxCell id="snO9IdEiVwamC3HxAGcw-37" value="&lt;font style=&quot;font-size: 10px;&quot;&gt;каталог&lt;/font&gt;" style="rounded=1;whiteSpace=wrap;html=1;verticalAlign=top;" parent="1" vertex="1">
          <mxGeometry x="240" y="154.5" width="155" height="310" as="geometry" />
        </mxCell>
        <mxCell id="tuDCf-i1AgGtZpwe7FlV-63" value="" style="rounded=1;whiteSpace=wrap;html=1;strokeColor=#00fa08;" parent="1" vertex="1">
          <mxGeometry x="242.5" y="256.75" width="70" height="85.5" as="geometry" />
        </mxCell>
        <mxCell id="snO9IdEiVwamC3HxAGcw-59" value="&lt;span style=&quot;font-size: 10px;&quot;&gt;избранное&amp;nbsp;&lt;/span&gt;" style="rounded=1;whiteSpace=wrap;html=1;verticalAlign=top;" parent="1" vertex="1">
          <mxGeometry x="840" y="154.5" width="155" height="310" as="geometry" />
        </mxCell>
        <mxCell id="snO9IdEiVwamC3HxAGcw-60" value="товар 4" style="rounded=1;whiteSpace=wrap;html=1;" parent="1" vertex="1">
          <mxGeometry x="929.5" y="264.5" width="56" height="70" as="geometry" />
        </mxCell>
        <mxCell id="snO9IdEiVwamC3HxAGcw-108" value="" style="ellipse;whiteSpace=wrap;html=1;aspect=fixed;strokeWidth=1;strokeColor=#00FA08;" parent="1" vertex="1">
          <mxGeometry x="965" y="269.5" width="20" height="20" as="geometry" />
        </mxCell>
        <mxCell id="snO9IdEiVwamC3HxAGcw-29" value="товар 4" style="rounded=1;whiteSpace=wrap;html=1;" parent="1" vertex="1">
          <mxGeometry x="129.5" y="264.5" width="56" height="70" as="geometry" />
        </mxCell>
        <mxCell id="snO9IdEiVwamC3HxAGcw-18" value="" style="verticalLabelPosition=bottom;verticalAlign=top;html=1;shape=mxgraph.basic.heart" parent="1" vertex="1">
          <mxGeometry x="166" y="434.5" width="20" height="20" as="geometry" />
        </mxCell>
        <mxCell id="snO9IdEiVwamC3HxAGcw-24" value="товар 5" style="rounded=1;whiteSpace=wrap;html=1;" parent="1" vertex="1">
          <mxGeometry x="50" y="344.5" width="56" height="70" as="geometry" />
        </mxCell>
        <mxCell id="snO9IdEiVwamC3HxAGcw-25" value="товар 6" style="rounded=1;whiteSpace=wrap;html=1;" parent="1" vertex="1">
          <mxGeometry x="130" y="344.5" width="56" height="70" as="geometry" />
        </mxCell>
        <mxCell id="snO9IdEiVwamC3HxAGcw-26" value="" style="verticalLabelPosition=bottom;verticalAlign=top;html=1;shape=mxgraph.basic.heart" parent="1" vertex="1">
          <mxGeometry x="170" y="354.5" width="10" height="10" as="geometry" />
        </mxCell>
        <mxCell id="snO9IdEiVwamC3HxAGcw-27" value="" style="verticalLabelPosition=bottom;verticalAlign=top;html=1;shape=mxgraph.basic.heart" parent="1" vertex="1">
          <mxGeometry x="90" y="354.5" width="10" height="10" as="geometry" />
        </mxCell>
        <mxCell id="snO9IdEiVwamC3HxAGcw-28" value="товар 3" style="rounded=1;whiteSpace=wrap;html=1;" parent="1" vertex="1">
          <mxGeometry x="49.5" y="264.5" width="56" height="70" as="geometry" />
        </mxCell>
        <mxCell id="snO9IdEiVwamC3HxAGcw-30" value="" style="verticalLabelPosition=bottom;verticalAlign=top;html=1;shape=mxgraph.basic.heart" parent="1" vertex="1">
          <mxGeometry x="169.5" y="274.5" width="10" height="10" as="geometry" />
        </mxCell>
        <mxCell id="snO9IdEiVwamC3HxAGcw-31" value="" style="verticalLabelPosition=bottom;verticalAlign=top;html=1;shape=mxgraph.basic.heart" parent="1" vertex="1">
          <mxGeometry x="89.5" y="274.5" width="10" height="10" as="geometry" />
        </mxCell>
        <mxCell id="snO9IdEiVwamC3HxAGcw-33" value="товар 2" style="rounded=1;whiteSpace=wrap;html=1;" parent="1" vertex="1">
          <mxGeometry x="129.5" y="184.5" width="56" height="70" as="geometry" />
        </mxCell>
        <mxCell id="snO9IdEiVwamC3HxAGcw-34" value="" style="verticalLabelPosition=bottom;verticalAlign=top;html=1;shape=mxgraph.basic.heart" parent="1" vertex="1">
          <mxGeometry x="169.5" y="194.5" width="10" height="10" as="geometry" />
        </mxCell>
        <mxCell id="snO9IdEiVwamC3HxAGcw-35" value="" style="verticalLabelPosition=bottom;verticalAlign=top;html=1;shape=mxgraph.basic.heart" parent="1" vertex="1">
          <mxGeometry x="89.5" y="194.5" width="10" height="10" as="geometry" />
        </mxCell>
        <mxCell id="snO9IdEiVwamC3HxAGcw-38" value="" style="verticalLabelPosition=bottom;verticalAlign=top;html=1;shape=mxgraph.basic.heart" parent="1" vertex="1">
          <mxGeometry x="560" y="190" width="20" height="20" as="geometry" />
        </mxCell>
        <mxCell id="snO9IdEiVwamC3HxAGcw-39" value="товар 5" style="rounded=1;whiteSpace=wrap;html=1;" parent="1" vertex="1">
          <mxGeometry x="250" y="344.5" width="56" height="70" as="geometry" />
        </mxCell>
        <mxCell id="snO9IdEiVwamC3HxAGcw-40" value="товар 6" style="rounded=1;whiteSpace=wrap;html=1;" parent="1" vertex="1">
          <mxGeometry x="330" y="344.5" width="56" height="70" as="geometry" />
        </mxCell>
        <mxCell id="snO9IdEiVwamC3HxAGcw-41" value="" style="verticalLabelPosition=bottom;verticalAlign=top;html=1;shape=mxgraph.basic.heart" parent="1" vertex="1">
          <mxGeometry x="370" y="354.5" width="10" height="10" as="geometry" />
        </mxCell>
        <mxCell id="snO9IdEiVwamC3HxAGcw-42" value="" style="verticalLabelPosition=bottom;verticalAlign=top;html=1;shape=mxgraph.basic.heart" parent="1" vertex="1">
          <mxGeometry x="290" y="354.5" width="10" height="10" as="geometry" />
        </mxCell>
        <mxCell id="snO9IdEiVwamC3HxAGcw-43" value="товар 3" style="rounded=1;whiteSpace=wrap;html=1;" parent="1" vertex="1">
          <mxGeometry x="249.5" y="264.5" width="56" height="70" as="geometry" />
        </mxCell>
        <mxCell id="snO9IdEiVwamC3HxAGcw-44" value="товар 4" style="rounded=1;whiteSpace=wrap;html=1;" parent="1" vertex="1">
          <mxGeometry x="329.5" y="264.5" width="56" height="70" as="geometry" />
        </mxCell>
        <mxCell id="snO9IdEiVwamC3HxAGcw-45" value="" style="verticalLabelPosition=bottom;verticalAlign=top;html=1;shape=mxgraph.basic.heart;strokeColor=#000000;fillColor=#FFFFFF;" parent="1" vertex="1">
          <mxGeometry x="369.5" y="274.5" width="10" height="10" as="geometry" />
        </mxCell>
        <mxCell id="snO9IdEiVwamC3HxAGcw-46" value="" style="verticalLabelPosition=bottom;verticalAlign=top;html=1;shape=mxgraph.basic.heart" parent="1" vertex="1">
          <mxGeometry x="289.5" y="274.5" width="10" height="10" as="geometry" />
        </mxCell>
        <mxCell id="snO9IdEiVwamC3HxAGcw-47" value="товар 1" style="rounded=1;whiteSpace=wrap;html=1;" parent="1" vertex="1">
          <mxGeometry x="249.5" y="184.5" width="56" height="70" as="geometry" />
        </mxCell>
        <mxCell id="snO9IdEiVwamC3HxAGcw-48" value="товар 2" style="rounded=1;whiteSpace=wrap;html=1;" parent="1" vertex="1">
          <mxGeometry x="329.5" y="184.5" width="56" height="70" as="geometry" />
        </mxCell>
        <mxCell id="snO9IdEiVwamC3HxAGcw-49" value="" style="verticalLabelPosition=bottom;verticalAlign=top;html=1;shape=mxgraph.basic.heart" parent="1" vertex="1">
          <mxGeometry x="369.5" y="194.5" width="10" height="10" as="geometry" />
        </mxCell>
        <mxCell id="snO9IdEiVwamC3HxAGcw-50" value="" style="verticalLabelPosition=bottom;verticalAlign=top;html=1;shape=mxgraph.basic.heart;fillColor=#FF66FF;" parent="1" vertex="1">
          <mxGeometry x="289.5" y="194.5" width="10" height="10" as="geometry" />
        </mxCell>
        <mxCell id="snO9IdEiVwamC3HxAGcw-63" value="товар 5" style="rounded=1;whiteSpace=wrap;html=1;" parent="1" vertex="1">
          <mxGeometry x="850" y="344.5" width="56" height="70" as="geometry" />
        </mxCell>
        <mxCell id="snO9IdEiVwamC3HxAGcw-64" value="товар 6" style="rounded=1;whiteSpace=wrap;html=1;" parent="1" vertex="1">
          <mxGeometry x="930" y="344.5" width="56" height="70" as="geometry" />
        </mxCell>
        <mxCell id="snO9IdEiVwamC3HxAGcw-65" value="" style="verticalLabelPosition=bottom;verticalAlign=top;html=1;shape=mxgraph.basic.heart;fillColor=#FF66FF;" parent="1" vertex="1">
          <mxGeometry x="970" y="354.5" width="10" height="10" as="geometry" />
        </mxCell>
        <mxCell id="snO9IdEiVwamC3HxAGcw-66" value="" style="verticalLabelPosition=bottom;verticalAlign=top;html=1;shape=mxgraph.basic.heart;fillColor=#FF66FF;" parent="1" vertex="1">
          <mxGeometry x="890" y="354.5" width="10" height="10" as="geometry" />
        </mxCell>
        <mxCell id="snO9IdEiVwamC3HxAGcw-67" value="товар 3" style="rounded=1;whiteSpace=wrap;html=1;" parent="1" vertex="1">
          <mxGeometry x="849.5" y="264.5" width="56" height="70" as="geometry" />
        </mxCell>
        <mxCell id="snO9IdEiVwamC3HxAGcw-68" value="" style="verticalLabelPosition=bottom;verticalAlign=top;html=1;shape=mxgraph.basic.heart;fillColor=#FF66FF;" parent="1" vertex="1">
          <mxGeometry x="969.5" y="274.5" width="10" height="10" as="geometry" />
        </mxCell>
        <mxCell id="snO9IdEiVwamC3HxAGcw-69" value="" style="verticalLabelPosition=bottom;verticalAlign=top;html=1;shape=mxgraph.basic.heart;strokeColor=#000000;fillColor=#FF66FF;" parent="1" vertex="1">
          <mxGeometry x="889.5" y="274.5" width="10" height="10" as="geometry" />
        </mxCell>
        <mxCell id="snO9IdEiVwamC3HxAGcw-70" value="товар 1" style="rounded=1;whiteSpace=wrap;html=1;" parent="1" vertex="1">
          <mxGeometry x="849.5" y="184.5" width="56" height="70" as="geometry" />
        </mxCell>
        <mxCell id="snO9IdEiVwamC3HxAGcw-71" value="товар 2" style="rounded=1;whiteSpace=wrap;html=1;" parent="1" vertex="1">
          <mxGeometry x="929.5" y="184.5" width="56" height="70" as="geometry" />
        </mxCell>
        <mxCell id="snO9IdEiVwamC3HxAGcw-72" value="" style="verticalLabelPosition=bottom;verticalAlign=top;html=1;shape=mxgraph.basic.heart;fillColor=#FF66FF;" parent="1" vertex="1">
          <mxGeometry x="969.5" y="194.5" width="10" height="10" as="geometry" />
        </mxCell>
        <mxCell id="snO9IdEiVwamC3HxAGcw-73" value="" style="verticalLabelPosition=bottom;verticalAlign=top;html=1;shape=mxgraph.basic.heart;fillColor=#FF66FF;" parent="1" vertex="1">
          <mxGeometry x="889.5" y="194.5" width="10" height="10" as="geometry" />
        </mxCell>
        <mxCell id="snO9IdEiVwamC3HxAGcw-92" value="товар 5" style="rounded=1;whiteSpace=wrap;html=1;" parent="1" vertex="1">
          <mxGeometry x="1139.5" y="260" width="56" height="70" as="geometry" />
        </mxCell>
        <mxCell id="snO9IdEiVwamC3HxAGcw-95" value="товар 6" style="rounded=1;whiteSpace=wrap;html=1;" parent="1" vertex="1">
          <mxGeometry x="1060" y="340" width="56" height="70" as="geometry" />
        </mxCell>
        <mxCell id="snO9IdEiVwamC3HxAGcw-98" value="" style="verticalLabelPosition=bottom;verticalAlign=top;html=1;shape=mxgraph.basic.heart;fillColor=#FF66FF;" parent="1" vertex="1">
          <mxGeometry x="1100" y="350" width="10" height="10" as="geometry" />
        </mxCell>
        <mxCell id="snO9IdEiVwamC3HxAGcw-99" value="товар 3" style="rounded=1;whiteSpace=wrap;html=1;" parent="1" vertex="1">
          <mxGeometry x="1059.5" y="260" width="56" height="70" as="geometry" />
        </mxCell>
        <mxCell id="snO9IdEiVwamC3HxAGcw-100" value="" style="verticalLabelPosition=bottom;verticalAlign=top;html=1;shape=mxgraph.basic.heart;fillColor=#FF66FF;" parent="1" vertex="1">
          <mxGeometry x="1179.5" y="270" width="10" height="10" as="geometry" />
        </mxCell>
        <mxCell id="snO9IdEiVwamC3HxAGcw-101" value="" style="verticalLabelPosition=bottom;verticalAlign=top;html=1;shape=mxgraph.basic.heart;fillColor=#FF66FF;" parent="1" vertex="1">
          <mxGeometry x="1099.5" y="270" width="10" height="10" as="geometry" />
        </mxCell>
        <mxCell id="snO9IdEiVwamC3HxAGcw-102" value="товар 1" style="rounded=1;whiteSpace=wrap;html=1;" parent="1" vertex="1">
          <mxGeometry x="1059.5" y="180" width="56" height="70" as="geometry" />
        </mxCell>
        <mxCell id="snO9IdEiVwamC3HxAGcw-103" value="товар 2" style="rounded=1;whiteSpace=wrap;html=1;" parent="1" vertex="1">
          <mxGeometry x="1139.5" y="180" width="56" height="70" as="geometry" />
        </mxCell>
        <mxCell id="snO9IdEiVwamC3HxAGcw-104" value="" style="verticalLabelPosition=bottom;verticalAlign=top;html=1;shape=mxgraph.basic.heart;fillColor=#FF66FF;" parent="1" vertex="1">
          <mxGeometry x="1179.5" y="190" width="10" height="10" as="geometry" />
        </mxCell>
        <mxCell id="snO9IdEiVwamC3HxAGcw-105" value="" style="verticalLabelPosition=bottom;verticalAlign=top;html=1;shape=mxgraph.basic.heart;fillColor=#FF66FF;" parent="1" vertex="1">
          <mxGeometry x="1099.5" y="190" width="10" height="10" as="geometry" />
        </mxCell>
        <mxCell id="tuDCf-i1AgGtZpwe7FlV-1" value="&lt;span style=&quot;font-size: 6px;&quot;&gt;Корзина&lt;/span&gt;" style="rounded=1;whiteSpace=wrap;html=1;verticalAlign=middle;" parent="1" vertex="1">
          <mxGeometry x="130" y="437" width="27" height="15" as="geometry" />
        </mxCell>
        <mxCell id="tuDCf-i1AgGtZpwe7FlV-5" value="&lt;span style=&quot;font-size: 6px;&quot;&gt;Поиск&lt;/span&gt;" style="rounded=1;whiteSpace=wrap;html=1;verticalAlign=middle;" parent="1" vertex="1">
          <mxGeometry x="89.5" y="437" width="27" height="15" as="geometry" />
        </mxCell>
        <mxCell id="tuDCf-i1AgGtZpwe7FlV-6" value="&lt;span style=&quot;font-size: 6px;&quot;&gt;Home&lt;/span&gt;" style="rounded=1;whiteSpace=wrap;html=1;verticalAlign=middle;" parent="1" vertex="1">
          <mxGeometry x="50" y="437" width="27" height="15" as="geometry" />
        </mxCell>
        <mxCell id="tuDCf-i1AgGtZpwe7FlV-67" value="товар 3" style="rounded=1;whiteSpace=wrap;html=1;" parent="1" vertex="1">
          <mxGeometry x="632.4" y="181.13" width="150.2" height="187.75" as="geometry" />
        </mxCell>
        <mxCell id="tuDCf-i1AgGtZpwe7FlV-68" value="" style="verticalLabelPosition=bottom;verticalAlign=top;html=1;shape=mxgraph.basic.heart;fillColor=#FF66FF;" parent="1" vertex="1">
          <mxGeometry x="750.5" y="190" width="20" height="20" as="geometry" />
        </mxCell>
        <mxCell id="tuDCf-i1AgGtZpwe7FlV-69" value="" style="verticalLabelPosition=bottom;verticalAlign=top;html=1;shape=mxgraph.basic.heart" parent="1" vertex="1">
          <mxGeometry x="366" y="434.5" width="20" height="20" as="geometry" />
        </mxCell>
        <mxCell id="tuDCf-i1AgGtZpwe7FlV-70" value="&lt;span style=&quot;font-size: 6px;&quot;&gt;Корзина&lt;/span&gt;" style="rounded=1;whiteSpace=wrap;html=1;verticalAlign=middle;" parent="1" vertex="1">
          <mxGeometry x="330" y="437" width="27" height="15" as="geometry" />
        </mxCell>
        <mxCell id="tuDCf-i1AgGtZpwe7FlV-71" value="&lt;span style=&quot;font-size: 6px;&quot;&gt;Поиск&lt;/span&gt;" style="rounded=1;whiteSpace=wrap;html=1;verticalAlign=middle;" parent="1" vertex="1">
          <mxGeometry x="289.5" y="437" width="27" height="15" as="geometry" />
        </mxCell>
        <mxCell id="tuDCf-i1AgGtZpwe7FlV-72" value="&lt;span style=&quot;font-size: 6px;&quot;&gt;Home&lt;/span&gt;" style="rounded=1;whiteSpace=wrap;html=1;verticalAlign=middle;" parent="1" vertex="1">
          <mxGeometry x="250" y="437" width="27" height="15" as="geometry" />
        </mxCell>
        <mxCell id="tuDCf-i1AgGtZpwe7FlV-73" value="" style="verticalLabelPosition=bottom;verticalAlign=top;html=1;shape=mxgraph.basic.heart" parent="1" vertex="1">
          <mxGeometry x="565" y="434.5" width="20" height="20" as="geometry" />
        </mxCell>
        <mxCell id="tuDCf-i1AgGtZpwe7FlV-74" value="&lt;span style=&quot;font-size: 6px;&quot;&gt;Корзина&lt;/span&gt;" style="rounded=1;whiteSpace=wrap;html=1;verticalAlign=middle;" parent="1" vertex="1">
          <mxGeometry x="529" y="437" width="27" height="15" as="geometry" />
        </mxCell>
        <mxCell id="tuDCf-i1AgGtZpwe7FlV-75" value="&lt;span style=&quot;font-size: 6px;&quot;&gt;Поиск&lt;/span&gt;" style="rounded=1;whiteSpace=wrap;html=1;verticalAlign=middle;" parent="1" vertex="1">
          <mxGeometry x="488.5" y="437" width="27" height="15" as="geometry" />
        </mxCell>
        <mxCell id="tuDCf-i1AgGtZpwe7FlV-76" value="&lt;span style=&quot;font-size: 6px;&quot;&gt;Home&lt;/span&gt;" style="rounded=1;whiteSpace=wrap;html=1;verticalAlign=middle;" parent="1" vertex="1">
          <mxGeometry x="449" y="437" width="27" height="15" as="geometry" />
        </mxCell>
        <mxCell id="tuDCf-i1AgGtZpwe7FlV-77" value="" style="verticalLabelPosition=bottom;verticalAlign=top;html=1;shape=mxgraph.basic.heart" parent="1" vertex="1">
          <mxGeometry x="755.5" y="434.5" width="20" height="20" as="geometry" />
        </mxCell>
        <mxCell id="tuDCf-i1AgGtZpwe7FlV-78" value="&lt;span style=&quot;font-size: 6px;&quot;&gt;Корзина&lt;/span&gt;" style="rounded=1;whiteSpace=wrap;html=1;verticalAlign=middle;" parent="1" vertex="1">
          <mxGeometry x="719.5" y="437" width="27" height="15" as="geometry" />
        </mxCell>
        <mxCell id="tuDCf-i1AgGtZpwe7FlV-79" value="&lt;span style=&quot;font-size: 6px;&quot;&gt;Поиск&lt;/span&gt;" style="rounded=1;whiteSpace=wrap;html=1;verticalAlign=middle;" parent="1" vertex="1">
          <mxGeometry x="679" y="437" width="27" height="15" as="geometry" />
        </mxCell>
        <mxCell id="tuDCf-i1AgGtZpwe7FlV-80" value="&lt;span style=&quot;font-size: 6px;&quot;&gt;Home&lt;/span&gt;" style="rounded=1;whiteSpace=wrap;html=1;verticalAlign=middle;" parent="1" vertex="1">
          <mxGeometry x="639.5" y="437" width="27" height="15" as="geometry" />
        </mxCell>
        <mxCell id="tuDCf-i1AgGtZpwe7FlV-83" value="" style="verticalLabelPosition=bottom;verticalAlign=top;html=1;shape=mxgraph.basic.heart;fillColor=#FF66FF;" parent="1" vertex="1">
          <mxGeometry x="965" y="434.5" width="20" height="20" as="geometry" />
        </mxCell>
        <mxCell id="tuDCf-i1AgGtZpwe7FlV-84" value="&lt;span style=&quot;font-size: 6px;&quot;&gt;Корзина&lt;/span&gt;" style="rounded=1;whiteSpace=wrap;html=1;verticalAlign=middle;" parent="1" vertex="1">
          <mxGeometry x="929" y="437" width="27" height="15" as="geometry" />
        </mxCell>
        <mxCell id="tuDCf-i1AgGtZpwe7FlV-85" value="&lt;span style=&quot;font-size: 6px;&quot;&gt;Поиск&lt;/span&gt;" style="rounded=1;whiteSpace=wrap;html=1;verticalAlign=middle;" parent="1" vertex="1">
          <mxGeometry x="888.5" y="437" width="27" height="15" as="geometry" />
        </mxCell>
        <mxCell id="tuDCf-i1AgGtZpwe7FlV-86" value="&lt;span style=&quot;font-size: 6px;&quot;&gt;Home&lt;/span&gt;" style="rounded=1;whiteSpace=wrap;html=1;verticalAlign=middle;" parent="1" vertex="1">
          <mxGeometry x="849" y="437" width="27" height="15" as="geometry" />
        </mxCell>
        <mxCell id="tuDCf-i1AgGtZpwe7FlV-87" value="" style="verticalLabelPosition=bottom;verticalAlign=top;html=1;shape=mxgraph.basic.heart;fillColor=#FF66FF;" parent="1" vertex="1">
          <mxGeometry x="1176" y="434.5" width="20" height="20" as="geometry" />
        </mxCell>
        <mxCell id="tuDCf-i1AgGtZpwe7FlV-88" value="&lt;span style=&quot;font-size: 6px;&quot;&gt;Корзина&lt;/span&gt;" style="rounded=1;whiteSpace=wrap;html=1;verticalAlign=middle;" parent="1" vertex="1">
          <mxGeometry x="1140" y="437" width="27" height="15" as="geometry" />
        </mxCell>
        <mxCell id="tuDCf-i1AgGtZpwe7FlV-89" value="&lt;span style=&quot;font-size: 6px;&quot;&gt;Поиск&lt;/span&gt;" style="rounded=1;whiteSpace=wrap;html=1;verticalAlign=middle;" parent="1" vertex="1">
          <mxGeometry x="1099.5" y="437" width="27" height="15" as="geometry" />
        </mxCell>
        <mxCell id="tuDCf-i1AgGtZpwe7FlV-90" value="&lt;span style=&quot;font-size: 6px;&quot;&gt;Home&lt;/span&gt;" style="rounded=1;whiteSpace=wrap;html=1;verticalAlign=middle;" parent="1" vertex="1">
          <mxGeometry x="1060" y="437" width="27" height="15" as="geometry" />
        </mxCell>
        <mxCell id="tuDCf-i1AgGtZpwe7FlV-91" value="" style="endArrow=classic;html=1;rounded=0;exitX=0.037;exitY=0.042;exitDx=0;exitDy=0;exitPerimeter=0;entryX=0.263;entryY=-0.001;entryDx=0;entryDy=0;entryPerimeter=0;" parent="1" source="tuDCf-i1AgGtZpwe7FlV-63" target="tuDCf-i1AgGtZpwe7FlV-35" edge="1">
          <mxGeometry width="50" height="50" relative="1" as="geometry">
            <mxPoint x="249" y="260" as="sourcePoint" />
            <mxPoint x="570" y="60" as="targetPoint" />
            <Array as="points">
              <mxPoint x="245" y="60" />
              <mxPoint x="480" y="60" />
            </Array>
          </mxGeometry>
        </mxCell>
        <mxCell id="tuDCf-i1AgGtZpwe7FlV-92" value="" style="endArrow=classic;html=1;rounded=0;exitX=0.467;exitY=0.003;exitDx=0;exitDy=0;exitPerimeter=0;entryX=0.25;entryY=0;entryDx=0;entryDy=0;" parent="1" source="tuDCf-i1AgGtZpwe7FlV-81" target="tuDCf-i1AgGtZpwe7FlV-66" edge="1">
          <mxGeometry width="50" height="50" relative="1" as="geometry">
            <mxPoint x="570" y="184.5" as="sourcePoint" />
            <mxPoint x="570" y="60" as="targetPoint" />
            <Array as="points">
              <mxPoint x="570" y="70" />
              <mxPoint x="670" y="70" />
            </Array>
          </mxGeometry>
        </mxCell>
        <mxCell id="tuDCf-i1AgGtZpwe7FlV-93" value="" style="endArrow=classic;html=1;rounded=0;exitX=0.5;exitY=1;exitDx=0;exitDy=0;entryX=0.5;entryY=1;entryDx=0;entryDy=0;" parent="1" source="tuDCf-i1AgGtZpwe7FlV-82" target="snO9IdEiVwamC3HxAGcw-59" edge="1">
          <mxGeometry width="50" height="50" relative="1" as="geometry">
            <mxPoint x="755.5" y="580" as="sourcePoint" />
            <mxPoint x="930" y="530" as="targetPoint" />
            <Array as="points">
              <mxPoint x="766" y="530" />
              <mxPoint x="918" y="530" />
            </Array>
          </mxGeometry>
        </mxCell>
        <mxCell id="tuDCf-i1AgGtZpwe7FlV-99" value="&lt;font style=&quot;font-size: 12px;&quot;&gt;Возврат в главное меню&lt;/font&gt;" style="text;html=1;align=center;verticalAlign=middle;resizable=0;points=[];autosize=1;strokeColor=none;fillColor=none;" parent="1" vertex="1">
          <mxGeometry x="400" y="590" width="160" height="30" as="geometry" />
        </mxCell>
        <mxCell id="tuDCf-i1AgGtZpwe7FlV-102" value="" style="endArrow=classic;html=1;rounded=0;exitX=0.5;exitY=0;exitDx=0;exitDy=0;entryX=0.25;entryY=0;entryDx=0;entryDy=0;" parent="1" source="tuDCf-i1AgGtZpwe7FlV-100" target="snO9IdEiVwamC3HxAGcw-37" edge="1">
          <mxGeometry width="50" height="50" relative="1" as="geometry">
            <mxPoint x="79.5" y="120" as="sourcePoint" />
            <mxPoint x="129.5" y="70" as="targetPoint" />
            <Array as="points">
              <mxPoint x="95" y="120" />
              <mxPoint x="279" y="120" />
            </Array>
          </mxGeometry>
        </mxCell>
        <mxCell id="tuDCf-i1AgGtZpwe7FlV-103" value="&lt;div&gt;При нажатии, кнопка меняет цвет,&amp;nbsp;&lt;/div&gt;&lt;div&gt;и товар добавляется в избранное&lt;/div&gt;" style="text;html=1;align=center;verticalAlign=middle;resizable=0;points=[];autosize=1;strokeColor=none;fillColor=none;" parent="1" vertex="1">
          <mxGeometry x="20" y="80" width="220" height="40" as="geometry" />
        </mxCell>
        <mxCell id="tuDCf-i1AgGtZpwe7FlV-104" value="При нажатии, открывается карточка товара" style="text;html=1;align=center;verticalAlign=middle;resizable=0;points=[];autosize=1;strokeColor=none;fillColor=none;" parent="1" vertex="1">
          <mxGeometry x="230" y="30" width="270" height="30" as="geometry" />
        </mxCell>
        <mxCell id="tuDCf-i1AgGtZpwe7FlV-105" value="&lt;div&gt;При нажатии, кнопка меняет цвет,&amp;nbsp;&lt;/div&gt;&lt;div&gt;и товар добавляется в избранное&lt;/div&gt;" style="text;html=1;align=center;verticalAlign=middle;resizable=0;points=[];autosize=1;strokeColor=none;fillColor=none;" parent="1" vertex="1">
          <mxGeometry x="535.5" y="30" width="220" height="40" as="geometry" />
        </mxCell>
        <mxCell id="tuDCf-i1AgGtZpwe7FlV-106" value="&lt;div&gt;При нажатии, кнопка меняет цвет,&amp;nbsp;&lt;/div&gt;&lt;div&gt;и переходит в раздел избранное&lt;/div&gt;" style="text;html=1;align=center;verticalAlign=middle;resizable=0;points=[];autosize=1;strokeColor=none;fillColor=none;" parent="1" vertex="1">
          <mxGeometry x="736" y="530" width="220" height="40" as="geometry" />
        </mxCell>
        <mxCell id="tuDCf-i1AgGtZpwe7FlV-108" value="" style="endArrow=classic;html=1;rounded=0;exitX=0.952;exitY=0.267;exitDx=0;exitDy=0;exitPerimeter=0;entryX=0.75;entryY=0;entryDx=0;entryDy=0;" parent="1" source="snO9IdEiVwamC3HxAGcw-108" target="snO9IdEiVwamC3HxAGcw-91" edge="1">
          <mxGeometry width="50" height="50" relative="1" as="geometry">
            <mxPoint x="985" y="274.5" as="sourcePoint" />
            <mxPoint x="1160" y="80" as="targetPoint" />
            <Array as="points">
              <mxPoint x="984" y="80" />
              <mxPoint x="1166" y="80" />
            </Array>
          </mxGeometry>
        </mxCell>
        <mxCell id="tuDCf-i1AgGtZpwe7FlV-109" value="&lt;div&gt;При нажатии, товар удаляется из избранного,&amp;nbsp;&lt;/div&gt;&lt;div&gt;и список товаров сдвигается влево&lt;/div&gt;" style="text;html=1;align=center;verticalAlign=middle;resizable=0;points=[];autosize=1;strokeColor=none;fillColor=none;" parent="1" vertex="1">
          <mxGeometry x="940" y="40" width="280" height="40" as="geometry" />
        </mxCell>
        <mxCell id="tuDCf-i1AgGtZpwe7FlV-110" value="" style="endArrow=classic;html=1;rounded=0;exitX=0.5;exitY=1;exitDx=0;exitDy=0;entryX=0.417;entryY=1;entryDx=0;entryDy=0;entryPerimeter=0;" parent="1" source="tuDCf-i1AgGtZpwe7FlV-90" target="m1XFAZKYXhFZ4w68f1Fo-2" edge="1">
          <mxGeometry width="50" height="50" relative="1" as="geometry">
            <mxPoint x="1058.5" y="575" as="sourcePoint" />
            <mxPoint x="100" y="470" as="targetPoint" />
            <Array as="points">
              <mxPoint x="1074" y="580" />
              <mxPoint x="105" y="580" />
            </Array>
          </mxGeometry>
        </mxCell>
      </root>
    </mxGraphModel>
  </diagram>
</mxfile>
